<svg xmlns="http://www.w3.org/2000/svg" viewBox="0 0 48 48" width="48" height="48" role="img" aria-label="Logo OJAM (placeholder): gota de agua con hoja">
  <!-- PLACEHOLDER de logo (gota + hoja). Reemplazar este archivo
       por el logo definitivo manteniendo el nombre logo.svg -->
  <path d="M24 3C24 3 9 20.5 9 30.5 9 38.5 15.7 45 24 45s15-6.5 15-14.5C39 20.5 24 3 24 3Z" fill="#0E7490"/>
  <path d="M24 3C24 3 9 20.5 9 30.5 9 38.5 15.7 45 24 45c1.6 0 3.2-.25 4.6-.7C18.5 41 14 33 16.6 24.4 18.5 18 21.5 11 24 3Z" fill="#155E75" opacity=".55"/>
  <path d="M23.5 37.5c-.8-7.6 3.8-13.4 12.5-14.5-.3 8.9-4.6 13.9-12.5 14.5Z" fill="#4ADE80"/>
  <path d="M25 36c2.5-4.5 5.5-7.5 9-9.5" stroke="#14532D" stroke-width="1.3" fill="none" stroke-linecap="round"/>
</svg>
